<svg width="220" height="317" viewBox="0 0 220 317" fill="none" xmlns="http://www.w3.org/2000/svg">
<g opacity="0.5">
<circle cx="65" cy="25" r="5" fill="#FDCAC5"/>
<circle cx="65" cy="25" r="5" fill="#FDCAC5"/>
<circle cx="185" cy="25" r="5" fill="#FCE5E3"/>
<circle cx="185" cy="25" r="5" fill="#FCE5E3"/>
<circle cx="185" cy="145" r="5" fill="#FCE5E3"/>
<circle cx="185" cy="145" r="5" fill="#FCE5E3"/>
<ellipse cx="86.5001" cy="149" rx="5.5" ry="5" fill="#C4C4C4"/>
<ellipse cx="86.5001" cy="149" rx="5.5" ry="5" fill="#C4C4C4"/>
<circle cx="65" cy="65" r="5" fill="#FDCAC5"/>
<circle cx="65" cy="65" r="5" fill="#FDCAC5"/>
<circle cx="185" cy="65" r="5" fill="#FCE5E3"/>
<circle cx="185" cy="65" r="5" fill="#FCE5E3"/>
<circle cx="185" cy="185" r="5" fill="#FCE5E3"/>
<circle cx="185" cy="185" r="5" fill="#FCE5E3"/>
<ellipse cx="86.5001" cy="109" rx="5.5" ry="5" fill="#FDCAC5"/>
<ellipse cx="86.5001" cy="109" rx="5.5" ry="5" fill="#FDCAC5"/>
<circle cx="185" cy="105" r="5" fill="#FCE5E3"/>
<circle cx="185" cy="105" r="5" fill="#FCE5E3"/>
<circle cx="185" cy="225" r="5" fill="#FCE5E3"/>
<circle cx="65" cy="5" r="5" fill="#FCE5E3"/>
<circle cx="65" cy="5" r="5" fill="#FCE5E3"/>
<circle cx="185" cy="5" r="5" fill="#FCE5E3"/>
<circle cx="185" cy="5" r="5" fill="#FCE5E3"/>
<circle cx="185" cy="125" r="5" fill="#FCE5E3"/>
<circle cx="185" cy="125" r="5" fill="#FCE5E3"/>
<ellipse cx="86.5001" cy="129" rx="5.5" ry="5" fill="#FDCAC5"/>
<ellipse cx="86.5001" cy="129" rx="5.5" ry="5" fill="#FDCAC5"/>
<circle cx="65" cy="45" r="5" fill="#FDCAC5"/>
<circle cx="65" cy="45" r="5" fill="#FDCAC5"/>
<circle cx="185" cy="45" r="5" fill="#FCE5E3"/>
<circle cx="185" cy="45" r="5" fill="#FCE5E3"/>
<circle cx="185" cy="165" r="5" fill="#FCE5E3"/>
<circle cx="185" cy="165" r="5" fill="#FCE5E3"/>
<circle cx="65" cy="85" r="5" fill="#FDCAC5"/>
<circle cx="65" cy="85" r="5" fill="#FDCAC5"/>
<circle cx="185" cy="85" r="5" fill="#FCE5E3"/>
<circle cx="185" cy="85" r="5" fill="#FCE5E3"/>
<circle cx="185" cy="205" r="5" fill="#FCE5E3"/>
<circle cx="185" cy="205" r="5" fill="#FCE5E3"/>
<circle cx="65" cy="25" r="5" fill="#FDCAC5"/>
<circle cx="65" cy="25" r="5" fill="#FDCAC5"/>
<circle cx="185" cy="25" r="5" fill="#FCE5E3"/>
<circle cx="185" cy="25" r="5" fill="#FCE5E3"/>
<circle cx="185" cy="145" r="5" fill="#FCE5E3"/>
<circle cx="185" cy="145" r="5" fill="#FCE5E3"/>
<ellipse cx="86.5001" cy="149" rx="5.5" ry="5" fill="#C4C4C4"/>
<ellipse cx="86.5001" cy="149" rx="5.5" ry="5" fill="#FCE5E3"/>
<circle cx="65" cy="65" r="5" fill="#FDCAC5"/>
<circle cx="65" cy="65" r="5" fill="#FDCAC5"/>
<circle cx="185" cy="65" r="5" fill="#FCE5E3"/>
<circle cx="185" cy="65" r="5" fill="#FCE5E3"/>
<circle cx="185" cy="185" r="5" fill="#FCE5E3"/>
<circle cx="185" cy="185" r="5" fill="#FCE5E3"/>
<ellipse cx="86.5001" cy="109" rx="5.5" ry="5" fill="#FDCAC5"/>
<ellipse cx="86.5001" cy="109" rx="5.5" ry="5" fill="#FDCAC5"/>
<circle cx="185" cy="105" r="5" fill="#FCE5E3"/>
<circle cx="185" cy="105" r="5" fill="#FCE5E3"/>
<circle cx="185" cy="225" r="5" fill="#FCE5E3"/>
<circle cx="65" cy="5" r="5" fill="#FCE5E3"/>
<circle cx="65" cy="5" r="5" fill="#FCE5E3"/>
<circle cx="185" cy="5" r="5" fill="#FCE5E3"/>
<circle cx="185" cy="5" r="5" fill="#FCE5E3"/>
<circle cx="185" cy="125" r="5" fill="#FCE5E3"/>
<circle cx="185" cy="125" r="5" fill="#FCE5E3"/>
<ellipse cx="86.5001" cy="129" rx="5.5" ry="5" fill="#FDCAC5"/>
<ellipse cx="86.5001" cy="129" rx="5.5" ry="5" fill="#FDCAC5"/>
<circle cx="65" cy="45" r="5" fill="#FDCAC5"/>
<circle cx="65" cy="45" r="5" fill="#FDCAC5"/>
<circle cx="185" cy="45" r="5" fill="#FCE5E3"/>
<circle cx="185" cy="45" r="5" fill="#FCE5E3"/>
<circle cx="185" cy="165" r="5" fill="#FCE5E3"/>
<circle cx="185" cy="165" r="5" fill="#FCE5E3"/>
<circle cx="65" cy="85" r="5" fill="#FDCAC5"/>
<circle cx="65" cy="85" r="5" fill="#FDCAC5"/>
<circle cx="185" cy="85" r="5" fill="#FCE5E3"/>
<circle cx="185" cy="85" r="5" fill="#FCE5E3"/>
<circle cx="185" cy="205" r="5" fill="#FCE5E3"/>
<circle cx="185" cy="205" r="5" fill="#FCE5E3"/>
<circle cx="35" cy="25" r="5" fill="#FCE5E3"/>
<circle cx="35" cy="25" r="5" fill="#FCE5E3"/>
<circle cx="155" cy="25" r="5" fill="#FDCAC5"/>
<circle cx="155" cy="25" r="5" fill="#FDCAC5"/>
<circle cx="155" cy="145" r="5" fill="#FCE5E3"/>
<circle cx="155" cy="145" r="5" fill="#FCE5E3"/>
<ellipse cx="53.5001" cy="312" rx="5.5" ry="5" fill="#FCE5E3"/>
<ellipse cx="53.5001" cy="312" rx="5.5" ry="5" fill="#FCE5E3"/>
<circle cx="35" cy="228" r="5" fill="#FCE5E3"/>
<circle cx="35" cy="228" r="5" fill="#FCE5E3"/>
<circle cx="155" cy="65" r="5" fill="#FDCAC5"/>
<circle cx="155" cy="65" r="5" fill="#FDCAC5"/>
<circle cx="155" cy="185" r="5" fill="#FCE5E3"/>
<circle cx="155" cy="185" r="5" fill="#FCE5E3"/>
<ellipse cx="53.5001" cy="272" rx="5.5" ry="5" fill="#FCE5E3"/>
<ellipse cx="53.5001" cy="272" rx="5.5" ry="5" fill="#FCE5E3"/>
<circle cx="155" cy="105" r="5" fill="#FDCAC5"/>
<circle cx="155" cy="105" r="5" fill="#FDCAC5"/>
<circle cx="155" cy="225" r="5" fill="#FCE5E3"/>
<circle cx="35" cy="5" r="5" fill="#FCE5E3"/>
<circle cx="35" cy="5" r="5" fill="#FCE5E3"/>
<circle cx="155" cy="5" r="5" fill="#FCE5E3"/>
<circle cx="155" cy="5" r="5" fill="#FCE5E3"/>
<circle cx="155" cy="125" r="5" fill="#FDCAC5"/>
<circle cx="155" cy="125" r="5" fill="#FDCAC5"/>
<ellipse cx="53.5001" cy="292" rx="5.5" ry="5" fill="#FCE5E3"/>
<ellipse cx="53.5001" cy="292" rx="5.5" ry="5" fill="#FCE5E3"/>
<circle cx="35" cy="208" r="5" fill="#FCE5E3"/>
<circle cx="35" cy="208" r="5" fill="#FCE5E3"/>
<circle cx="155" cy="45" r="5" fill="#FDCAC5"/>
<circle cx="155" cy="45" r="5" fill="#FDCAC5"/>
<circle cx="155" cy="165" r="5" fill="#FCE5E3"/>
<circle cx="155" cy="165" r="5" fill="#FCE5E3"/>
<circle cx="35" cy="248" r="5" fill="#FCE5E3"/>
<circle cx="35" cy="248" r="5" fill="#FCE5E3"/>
<circle cx="155" cy="85" r="5" fill="#FDCAC5"/>
<circle cx="155" cy="85" r="5" fill="#FDCAC5"/>
<circle cx="155" cy="205" r="5" fill="#FCE5E3"/>
<circle cx="155" cy="205" r="5" fill="#FCE5E3"/>
<circle cx="35" cy="25" r="5" fill="#FCE5E3"/>
<circle cx="35" cy="25" r="5" fill="#FCE5E3"/>
<circle cx="155" cy="25" r="5" fill="#FDCAC5"/>
<circle cx="155" cy="25" r="5" fill="#FDCAC5"/>
<circle cx="155" cy="145" r="5" fill="#FCE5E3"/>
<circle cx="155" cy="145" r="5" fill="#FCE5E3"/>
<ellipse cx="53.5001" cy="312" rx="5.5" ry="5" fill="#FCE5E3"/>
<ellipse cx="53.5001" cy="312" rx="5.5" ry="5" fill="#FCE5E3"/>
<circle cx="35" cy="228" r="5" fill="#FCE5E3"/>
<circle cx="35" cy="228" r="5" fill="#FCE5E3"/>
<circle cx="155" cy="65" r="5" fill="#FDCAC5"/>
<circle cx="155" cy="65" r="5" fill="#FDCAC5"/>
<circle cx="155" cy="185" r="5" fill="#FCE5E3"/>
<circle cx="155" cy="185" r="5" fill="#FCE5E3"/>
<ellipse cx="53.5001" cy="272" rx="5.5" ry="5" fill="#FCE5E3"/>
<ellipse cx="53.5001" cy="272" rx="5.5" ry="5" fill="#FCE5E3"/>
<circle cx="155" cy="105" r="5" fill="#FDCAC5"/>
<circle cx="155" cy="105" r="5" fill="#FDCAC5"/>
<circle cx="155" cy="225" r="5" fill="#FCE5E3"/>
<circle cx="35" cy="5" r="5" fill="#FCE5E3"/>
<circle cx="35" cy="5" r="5" fill="#FCE5E3"/>
<circle cx="155" cy="5" r="5" fill="#FCE5E3"/>
<circle cx="155" cy="5" r="5" fill="#FCE5E3"/>
<circle cx="155" cy="125" r="5" fill="#FDCAC5"/>
<circle cx="155" cy="125" r="5" fill="#FDCAC5"/>
<ellipse cx="53.5001" cy="292" rx="5.5" ry="5" fill="#FCE5E3"/>
<ellipse cx="53.5001" cy="292" rx="5.5" ry="5" fill="#FCE5E3"/>
<circle cx="35" cy="208" r="5" fill="#FCE5E3"/>
<circle cx="35" cy="208" r="5" fill="#FCE5E3"/>
<circle cx="155" cy="45" r="5" fill="#FDCAC5"/>
<circle cx="155" cy="45" r="5" fill="#FDCAC5"/>
<circle cx="155" cy="165" r="5" fill="#FCE5E3"/>
<circle cx="155" cy="165" r="5" fill="#FCE5E3"/>
<circle cx="35" cy="248" r="5" fill="#FCE5E3"/>
<circle cx="35" cy="248" r="5" fill="#FCE5E3"/>
<circle cx="155" cy="85" r="5" fill="#FDCAC5"/>
<circle cx="155" cy="85" r="5" fill="#FDCAC5"/>
<circle cx="155" cy="205" r="5" fill="#FCE5E3"/>
<circle cx="155" cy="205" r="5" fill="#FCE5E3"/>
<circle cx="5" cy="25" r="5" fill="#FCE5E3"/>
<circle cx="5" cy="25" r="5" fill="#FCE5E3"/>
<circle cx="125" cy="25" r="5" fill="#FDCAC5"/>
<circle cx="125" cy="25" r="5" fill="#FDCAC5"/>
<circle cx="125" cy="145" r="5" fill="#FCE5E3"/>
<circle cx="125" cy="145" r="5" fill="#FCE5E3"/>
<ellipse cx="20.5001" cy="312" rx="5.5" ry="5" fill="#FCE5E3"/>
<ellipse cx="20.5001" cy="312" rx="5.5" ry="5" fill="#FCE5E3"/>
<circle cx="5" cy="228" r="5" fill="#FCE5E3"/>
<circle cx="5" cy="228" r="5" fill="#FCE5E3"/>
<circle cx="125" cy="65" r="5" fill="#FDCAC5"/>
<circle cx="125" cy="65" r="5" fill="#FDCAC5"/>
<circle cx="125" cy="185" r="5" fill="#FCE5E3"/>
<circle cx="125" cy="185" r="5" fill="#FCE5E3"/>
<ellipse cx="20.5001" cy="272" rx="5.5" ry="5" fill="#FCE5E3"/>
<ellipse cx="20.5001" cy="272" rx="5.5" ry="5" fill="#FCE5E3"/>
<circle cx="125" cy="105" r="5" fill="#FDCAC5"/>
<circle cx="125" cy="105" r="5" fill="#FDCAC5"/>
<circle cx="125" cy="225" r="5" fill="#FCE5E3"/>
<circle cx="5" cy="5" r="5" fill="#FCE5E3"/>
<circle cx="5" cy="5" r="5" fill="#FCE5E3"/>
<circle cx="125" cy="5" r="5" fill="#FCE5E3"/>
<circle cx="125" cy="5" r="5" fill="#FCE5E3"/>
<circle cx="125" cy="125" r="5" fill="#FDCAC5"/>
<circle cx="125" cy="125" r="5" fill="#FDCAC5"/>
<ellipse cx="20.5001" cy="292" rx="5.5" ry="5" fill="#FCE5E3"/>
<ellipse cx="20.5001" cy="292" rx="5.5" ry="5" fill="#FCE5E3"/>
<circle cx="5" cy="208" r="5" fill="#FCE5E3"/>
<circle cx="5" cy="208" r="5" fill="#FCE5E3"/>
<circle cx="125" cy="45" r="5" fill="#FDCAC5"/>
<circle cx="125" cy="45" r="5" fill="#FDCAC5"/>
<circle cx="125" cy="165" r="5" fill="#FCE5E3"/>
<circle cx="125" cy="165" r="5" fill="#FCE5E3"/>
<circle cx="5" cy="248" r="5" fill="#FCE5E3"/>
<circle cx="5" cy="248" r="5" fill="#FCE5E3"/>
<circle cx="125" cy="85" r="5" fill="#FDCAC5"/>
<circle cx="125" cy="85" r="5" fill="#FDCAC5"/>
<circle cx="125" cy="205" r="5" fill="#FCE5E3"/>
<circle cx="125" cy="205" r="5" fill="#FCE5E3"/>
<circle cx="5" cy="25" r="5" fill="#FCE5E3"/>
<circle cx="5" cy="25" r="5" fill="#FCE5E3"/>
<circle cx="125" cy="25" r="5" fill="#FDCAC5"/>
<circle cx="125" cy="25" r="5" fill="#FDCAC5"/>
<circle cx="125" cy="145" r="5" fill="#FCE5E3"/>
<circle cx="125" cy="145" r="5" fill="#FCE5E3"/>
<ellipse cx="20.5001" cy="312" rx="5.5" ry="5" fill="#FCE5E3"/>
<ellipse cx="20.5001" cy="312" rx="5.5" ry="5" fill="#FCE5E3"/>
<circle cx="5" cy="228" r="5" fill="#FCE5E3"/>
<circle cx="5" cy="228" r="5" fill="#FCE5E3"/>
<circle cx="125" cy="65" r="5" fill="#FDCAC5"/>
<circle cx="125" cy="65" r="5" fill="#FDCAC5"/>
<circle cx="125" cy="185" r="5" fill="#FCE5E3"/>
<circle cx="125" cy="185" r="5" fill="#FCE5E3"/>
<ellipse cx="20.5001" cy="272" rx="5.5" ry="5" fill="#FCE5E3"/>
<ellipse cx="20.5001" cy="272" rx="5.5" ry="5" fill="#FCE5E3"/>
<circle cx="125" cy="105" r="5" fill="#FDCAC5"/>
<circle cx="125" cy="105" r="5" fill="#FDCAC5"/>
<circle cx="125" cy="225" r="5" fill="#FCE5E3"/>
<circle cx="5" cy="5" r="5" fill="#FCE5E3"/>
<circle cx="5" cy="5" r="5" fill="#FCE5E3"/>
<circle cx="125" cy="5" r="5" fill="#FCE5E3"/>
<circle cx="125" cy="5" r="5" fill="#FCE5E3"/>
<circle cx="125" cy="125" r="5" fill="#FDCAC5"/>
<circle cx="125" cy="125" r="5" fill="#FDCAC5"/>
<ellipse cx="20.5001" cy="292" rx="5.5" ry="5" fill="#FCE5E3"/>
<ellipse cx="20.5001" cy="292" rx="5.5" ry="5" fill="#FCE5E3"/>
<circle cx="5" cy="208" r="5" fill="#FCE5E3"/>
<circle cx="5" cy="188" r="5" fill="#FCE5E3"/>
<circle cx="125" cy="45" r="5" fill="#FDCAC5"/>
<circle cx="125" cy="45" r="5" fill="#FDCAC5"/>
<circle cx="125" cy="165" r="5" fill="#FCE5E3"/>
<circle cx="125" cy="165" r="5" fill="#FCE5E3"/>
<circle cx="5" cy="248" r="5" fill="#FCE5E3"/>
<circle cx="5" cy="248" r="5" fill="#FCE5E3"/>
<circle cx="125" cy="85" r="5" fill="#FDCAC5"/>
<circle cx="125" cy="85" r="5" fill="#FDCAC5"/>
<circle cx="125" cy="205" r="5" fill="#FCE5E3"/>
<circle cx="125" cy="205" r="5" fill="#FCE5E3"/>
<circle cx="95" cy="25" r="5" fill="#FDCAC5"/>
<circle cx="95" cy="25" r="5" fill="#FDCAC5"/>
<circle cx="215" cy="25" r="5" fill="#FCE5E3"/>
<circle cx="215" cy="145" r="5" fill="#FCE5E3"/>
<circle cx="35" cy="85" r="5" fill="#FCE5E3"/>
<circle cx="35" cy="85" r="5" fill="#FCE5E3"/>
<circle cx="95" cy="65" r="5" fill="#FDCAC5"/>
<circle cx="95" cy="65" r="5" fill="#FDCAC5"/>
<circle cx="215" cy="65" r="5" fill="#FCE5E3"/>
<circle cx="215" cy="185" r="5" fill="#FCE5E3"/>
<circle cx="35" cy="125" r="5" fill="#FCE5E3"/>
<circle cx="35" cy="125" r="5" fill="#FCE5E3"/>
<circle cx="35" cy="45" r="5" fill="#FDCAC5"/>
<circle cx="35" cy="45" r="5" fill="#FDCAC5"/>
<circle cx="215" cy="105" r="5" fill="#FCE5E3"/>
<circle cx="215" cy="225" r="5" fill="#FCE5E3"/>
<circle cx="35" cy="165" r="5" fill="#FCE5E3"/>
<circle cx="95" cy="5" r="5" fill="#FCE5E3"/>
<circle cx="95" cy="5" r="5" fill="#FCE5E3"/>
<circle cx="215" cy="5" r="5" fill="#FCE5E3"/>
<circle cx="215" cy="125" r="5" fill="#FCE5E3"/>
<circle cx="35" cy="65" r="5" fill="#FDCAC5"/>
<circle cx="35" cy="65" r="5" fill="#FDCAC5"/>
<circle cx="95" cy="45" r="5" fill="#FDCAC5"/>
<circle cx="95" cy="45" r="5" fill="#FDCAC5"/>
<circle cx="215" cy="45" r="5" fill="#FCE5E3"/>
<circle cx="215" cy="165" r="5" fill="#FCE5E3"/>
<circle cx="35" cy="105" r="5" fill="#FCE5E3"/>
<circle cx="35" cy="105" r="5" fill="#FCE5E3"/>
<circle cx="95" cy="85" r="5" fill="#FDCAC5"/>
<circle cx="95" cy="85" r="5" fill="#FDCAC5"/>
<circle cx="215" cy="85" r="5" fill="#FCE5E3"/>
<circle cx="215" cy="205" r="5" fill="#FCE5E3"/>
<circle cx="35" cy="145" r="5" fill="#FCE5E3"/>
<circle cx="35" cy="145" r="5" fill="#FCE5E3"/>
<circle cx="95" cy="25" r="5" fill="#FDCAC5"/>
<circle cx="95" cy="25" r="5" fill="#FDCAC5"/>
<circle cx="215" cy="25" r="5" fill="#FCE5E3"/>
<circle cx="215" cy="145" r="5" fill="#FCE5E3"/>
<circle cx="35" cy="85" r="5" fill="#FCE5E3"/>
<circle cx="35" cy="85" r="5" fill="#FCE5E3"/>
<circle cx="95" cy="65" r="5" fill="#FDCAC5"/>
<circle cx="95" cy="65" r="5" fill="#FDCAC5"/>
<circle cx="215" cy="65" r="5" fill="#FCE5E3"/>
<circle cx="215" cy="185" r="5" fill="#FCE5E3"/>
<circle cx="35" cy="125" r="5" fill="#FCE5E3"/>
<circle cx="35" cy="125" r="5" fill="#FCE5E3"/>
<circle cx="35" cy="45" r="5" fill="#FDCAC5"/>
<circle cx="35" cy="45" r="5" fill="#FDCAC5"/>
<circle cx="215" cy="105" r="5" fill="#FCE5E3"/>
<circle cx="215" cy="225" r="5" fill="#FCE5E3"/>
<circle cx="35" cy="165" r="5" fill="#FCE5E3"/>
<circle cx="95" cy="5" r="5" fill="#FCE5E3"/>
<circle cx="95" cy="5" r="5" fill="#FCE5E3"/>
<circle cx="215" cy="5" r="5" fill="#FCE5E3"/>
<circle cx="215" cy="125" r="5" fill="#FCE5E3"/>
<circle cx="35" cy="65" r="5" fill="#FDCAC5"/>
<circle cx="35" cy="65" r="5" fill="#FDCAC5"/>
<circle cx="95" cy="45" r="5" fill="#FDCAC5"/>
<circle cx="95" cy="45" r="5" fill="#FDCAC5"/>
<circle cx="215" cy="45" r="5" fill="#FCE5E3"/>
<circle cx="215" cy="165" r="5" fill="#FCE5E3"/>
<circle cx="35" cy="105" r="5" fill="#FCE5E3"/>
<circle cx="35" cy="105" r="5" fill="#FCE5E3"/>
<circle cx="95" cy="85" r="5" fill="#FDCAC5"/>
<circle cx="95" cy="85" r="5" fill="#FDCAC5"/>
<circle cx="215" cy="85" r="5" fill="#FCE5E3"/>
<circle cx="215" cy="205" r="5" fill="#FCE5E3"/>
<circle cx="35" cy="145" r="5" fill="#FCE5E3"/>
<circle cx="35" cy="145" r="5" fill="#FCE5E3"/>
</g>
</svg>
